<mxfile host="app.diagrams.net" modified="2021-02-24T05:02:47.551Z" agent="5.0 (Windows NT 10.0; Win64; x64) AppleWebKit/537.36 (KHTML, like Gecko) Chrome/88.0.4324.182 Safari/537.36 Edg/88.0.705.74" etag="lrSCxFa5nI1hGo-TyBpw" version="14.4.2" type="github">
  <diagram id="sdGZKqKtDCT0O-bOwr3C" name="第 1 页">
    <mxGraphModel dx="1422" dy="794" grid="1" gridSize="10" guides="1" tooltips="1" connect="1" arrows="1" fold="1" page="1" pageScale="1" pageWidth="827" pageHeight="1169" math="0" shadow="0">
      <root>
        <mxCell id="0" />
        <mxCell id="1" parent="0" />
        <mxCell id="9tNgO6ZLtSPC4pQVO-60-3" value="" style="edgeStyle=orthogonalEdgeStyle;rounded=0;orthogonalLoop=1;jettySize=auto;html=1;fillColor=#e1d5e7;strokeColor=#9673a6;" parent="1" source="9tNgO6ZLtSPC4pQVO-60-1" target="9tNgO6ZLtSPC4pQVO-60-2" edge="1">
          <mxGeometry relative="1" as="geometry">
            <Array as="points">
              <mxPoint x="110" y="80" />
              <mxPoint x="110" y="80" />
            </Array>
          </mxGeometry>
        </mxCell>
        <mxCell id="9tNgO6ZLtSPC4pQVO-60-5" style="edgeStyle=orthogonalEdgeStyle;rounded=0;orthogonalLoop=1;jettySize=auto;html=1;exitX=1;exitY=0.25;exitDx=0;exitDy=0;entryX=0;entryY=0;entryDx=50;entryDy=0;entryPerimeter=0;fillColor=#d5e8d4;strokeColor=#82b366;" parent="1" source="9tNgO6ZLtSPC4pQVO-60-1" target="9tNgO6ZLtSPC4pQVO-60-2" edge="1">
          <mxGeometry relative="1" as="geometry">
            <Array as="points">
              <mxPoint x="120" y="48" />
              <mxPoint x="120" y="8" />
              <mxPoint x="190" y="8" />
            </Array>
          </mxGeometry>
        </mxCell>
        <mxCell id="9tNgO6ZLtSPC4pQVO-60-1" value="" style="whiteSpace=wrap;html=1;aspect=fixed;fillColor=#d5e8d4;strokeColor=#82b366;" parent="1" vertex="1">
          <mxGeometry y="28" width="80" height="80" as="geometry" />
        </mxCell>
        <mxCell id="1u85N4YY4bQYgGLvulF8-2" value="" style="edgeStyle=orthogonalEdgeStyle;rounded=0;orthogonalLoop=1;jettySize=auto;html=1;" edge="1" parent="1" source="9tNgO6ZLtSPC4pQVO-60-2" target="1u85N4YY4bQYgGLvulF8-1">
          <mxGeometry relative="1" as="geometry" />
        </mxCell>
        <mxCell id="9tNgO6ZLtSPC4pQVO-60-2" value="" style="shape=cube;whiteSpace=wrap;html=1;boundedLbl=1;backgroundOutline=1;darkOpacity=0.05;darkOpacity2=0.1;size=20;fillColor=#ffe6cc;strokeColor=#d79b00;" parent="1" vertex="1">
          <mxGeometry x="140" y="28" width="120" height="80" as="geometry" />
        </mxCell>
        <mxCell id="9tNgO6ZLtSPC4pQVO-60-4" style="edgeStyle=none;rounded=0;orthogonalLoop=1;jettySize=auto;html=1;exitX=1;exitY=0.25;exitDx=0;exitDy=0;entryX=0.5;entryY=1;entryDx=0;entryDy=0;" parent="1" source="9tNgO6ZLtSPC4pQVO-60-1" target="9tNgO6ZLtSPC4pQVO-60-1" edge="1">
          <mxGeometry relative="1" as="geometry" />
        </mxCell>
        <mxCell id="1u85N4YY4bQYgGLvulF8-1" value="" style="whiteSpace=wrap;html=1;aspect=fixed;" vertex="1" parent="1">
          <mxGeometry x="360" y="40" width="80" height="80" as="geometry" />
        </mxCell>
      </root>
    </mxGraphModel>
  </diagram>
</mxfile>
